<?xml version="1.0" encoding="UTF-8"?><svg id="Layer_1" xmlns="http://www.w3.org/2000/svg" xmlns:xlink="http://www.w3.org/1999/xlink" viewBox="0 0 771.41 201.6"><defs><style>.cls-1{fill:url(#linear-gradient-7);}.cls-1,.cls-2,.cls-3,.cls-4,.cls-5,.cls-6,.cls-7,.cls-8,.cls-9,.cls-10,.cls-11{opacity:.54;}.cls-12{fill:url(#linear-gradient-17);}.cls-12,.cls-13,.cls-14,.cls-15,.cls-16,.cls-17,.cls-18,.cls-19,.cls-20,.cls-21,.cls-22,.cls-23,.cls-24,.cls-25{opacity:.48;}.cls-13{fill:url(#linear-gradient-20);}.cls-2{fill:url(#linear-gradient-9);}.cls-14{fill:url(#linear-gradient-24);}.cls-15{fill:url(#linear-gradient-25);}.cls-16{fill:url(#linear-gradient-26);}.cls-3{fill:url(#linear-gradient-11);}.cls-17{fill:url(#linear-gradient-16);}.cls-26{fill:url(#linear-gradient-40);}.cls-27{fill:url(#linear-gradient-28);}.cls-4{fill:url(#linear-gradient);}.cls-28{fill:url(#linear-gradient-36);}.cls-18{fill:url(#linear-gradient-22);}.cls-19{fill:url(#linear-gradient-21);}.cls-20{fill:url(#linear-gradient-14);}.cls-29{fill:url(#linear-gradient-35);}.cls-30{fill:url(#linear-gradient-32);}.cls-5{fill:url(#linear-gradient-10);}.cls-31{fill:url(#linear-gradient-39);}.cls-6{fill:url(#linear-gradient-5);}.cls-7{fill:url(#linear-gradient-8);}.cls-8{fill:url(#linear-gradient-3);}.cls-32{fill:url(#linear-gradient-37);}.cls-33{fill:url(#linear-gradient-31);}.cls-9{fill:url(#linear-gradient-2);}.cls-34{fill:url(#linear-gradient-41);}.cls-21{fill:url(#linear-gradient-19);}.cls-35{fill:none;stroke:#e14d43;stroke-miterlimit:10;stroke-width:2.2px;}.cls-36{fill:url(#linear-gradient-42);opacity:.76;}.cls-22{fill:url(#linear-gradient-13);}.cls-37{fill:#363b3f;}.cls-38{fill:url(#linear-gradient-34);}.cls-23{fill:url(#linear-gradient-23);}.cls-24{fill:url(#linear-gradient-15);}.cls-39{fill:#eb4734;}.cls-25{fill:url(#linear-gradient-18);}.cls-10{fill:url(#linear-gradient-4);}.cls-40{fill:url(#linear-gradient-27);}.cls-41{fill:url(#linear-gradient-33);}.cls-42{fill:url(#linear-gradient-38);}.cls-43{fill:url(#linear-gradient-29);}.cls-44{fill:url(#linear-gradient-30);}.cls-45{fill:#231f20;}.cls-11{fill:url(#linear-gradient-6);}.cls-46{fill:url(#linear-gradient-12);}</style><linearGradient id="linear-gradient" x1="165.42" y1="137.32" x2="165.42" y2="55.15" gradientUnits="userSpaceOnUse"><stop offset="0" stop-color="#88969e"/><stop offset="1" stop-color="#88969e" stop-opacity="0"/></linearGradient><linearGradient id="linear-gradient-2" x1="183.13" y1="54.89" x2="135.83" y2="54.89" xlink:href="#linear-gradient"/><linearGradient id="linear-gradient-3" x1="158.56" y1="122.63" x2="158.56" y2="33.81" xlink:href="#linear-gradient"/><linearGradient id="linear-gradient-4" x1="284.13" y1="104.58" x2="111.69" y2="104.58" xlink:href="#linear-gradient"/><linearGradient id="linear-gradient-5" x1="284.64" y1="124.99" x2="112.79" y2="124.99" xlink:href="#linear-gradient"/><linearGradient id="linear-gradient-6" x1="270.38" y1="142.05" x2="116.76" y2="142.05" xlink:href="#linear-gradient"/><linearGradient id="linear-gradient-7" x1="254.63" y1="153.75" x2="118.18" y2="153.75" xlink:href="#linear-gradient"/><linearGradient id="linear-gradient-8" x1="241.18" y1="162.41" x2="117.04" y2="162.41" xlink:href="#linear-gradient"/><linearGradient id="linear-gradient-9" x1="225.25" y1="172.38" x2="112.42" y2="172.38" xlink:href="#linear-gradient"/><linearGradient id="linear-gradient-10" x1="197.72" y1="186.63" x2="102.41" y2="186.63" xlink:href="#linear-gradient"/><linearGradient id="linear-gradient-11" x1="139.28" y1="198.59" x2="101.33" y2="198.59" xlink:href="#linear-gradient"/><linearGradient id="linear-gradient-12" x1="63.21" y1="195.11" x2="110.04" y2="173.54" gradientUnits="userSpaceOnUse"><stop offset="0" stop-color="#8e989e"/><stop offset="1" stop-color="#231f20"/></linearGradient><linearGradient id="linear-gradient-13" x1="148.11" y1="20.53" x2="145.78" y2="41.35" gradientUnits="userSpaceOnUse"><stop offset="0" stop-color="#fff"/><stop offset="1" stop-color="#fff" stop-opacity="0"/></linearGradient><linearGradient id="linear-gradient-14" x1="155.4" y1="32.59" x2="151.62" y2="66.41" xlink:href="#linear-gradient-13"/><linearGradient id="linear-gradient-15" x1="163.17" y1="46.83" x2="159.15" y2="82.81" xlink:href="#linear-gradient-13"/><linearGradient id="linear-gradient-16" x1="170.06" y1="66.96" x2="166.31" y2="100.44" xlink:href="#linear-gradient-13"/><linearGradient id="linear-gradient-17" x1="173.27" y1="91.74" x2="170.41" y2="117.27" xlink:href="#linear-gradient-13"/><linearGradient id="linear-gradient-18" x1="172" y1="117" x2="169.97" y2="135.09" xlink:href="#linear-gradient-13"/><linearGradient id="linear-gradient-19" x1="168.25" y1="138.48" x2="167.01" y2="149.53" xlink:href="#linear-gradient-13"/><linearGradient id="linear-gradient-20" x1="148.94" y1="141.19" x2="179.58" y2="171.07" xlink:href="#linear-gradient-13"/><linearGradient id="linear-gradient-21" x1="143.77" y1="150.78" x2="173.2" y2="179.49" xlink:href="#linear-gradient-13"/><linearGradient id="linear-gradient-22" x1="135.48" y1="160.56" x2="164.13" y2="188.51" xlink:href="#linear-gradient-13"/><linearGradient id="linear-gradient-23" x1="122.39" y1="177.94" x2="144.76" y2="199.76" xlink:href="#linear-gradient-13"/><linearGradient id="linear-gradient-24" x1="109.03" y1="198.65" x2="111.58" y2="201.13" xlink:href="#linear-gradient-13"/><linearGradient id="linear-gradient-25" x1="130.69" y1="30.13" x2="113.31" y2="32.6" xlink:href="#linear-gradient-13"/><linearGradient id="linear-gradient-26" x1="123.33" y1="39.72" x2="87.66" y2="41.33" xlink:href="#linear-gradient-13"/><linearGradient id="linear-gradient-27" x1="1059.33" y1="-649.66" x2="1023.7" y2="-787.39" gradientTransform="translate(-727.11 1064.08) rotate(-11.99)" xlink:href="#linear-gradient-12"/><linearGradient id="linear-gradient-28" x1="1032.68" y1="-854.98" x2="1057.25" y2="-724.88" gradientTransform="translate(-727.11 1064.08) rotate(-11.99)" xlink:href="#linear-gradient-12"/><linearGradient id="linear-gradient-29" x1="1014.12" y1="-817.56" x2="1011.46" y2="-810.11" gradientTransform="translate(-727.11 1064.08) rotate(-11.99)" gradientUnits="userSpaceOnUse"><stop offset="0" stop-color="#ec1c24"/><stop offset="1" stop-color="#70000a"/></linearGradient><linearGradient id="linear-gradient-30" x1="1008.06" y1="-810.79" x2="1001.45" y2="-822.51" xlink:href="#linear-gradient-29"/><linearGradient id="linear-gradient-31" x1="1001.57" y1="-818.97" x2="996.03" y2="-822.38" xlink:href="#linear-gradient-29"/><linearGradient id="linear-gradient-32" x1="74.9" y1="214.21" x2="66.34" y2="195.85" xlink:href="#linear-gradient-12"/><linearGradient id="linear-gradient-33" x1="47.99" y1="191.29" x2="70.1" y2="161.82" xlink:href="#linear-gradient-12"/><linearGradient id="linear-gradient-34" x1="958.1" y1="-728.42" x2="971.26" y2="-773.83" gradientTransform="translate(-727.11 1064.08) rotate(-11.99)" xlink:href="#linear-gradient-12"/><linearGradient id="linear-gradient-35" x1="975.99" y1="-740.65" x2="950.04" y2="-767.88" gradientTransform="translate(-727.11 1064.08) rotate(-11.99)" xlink:href="#linear-gradient-12"/><linearGradient id="linear-gradient-36" x1="983.27" y1="-735.84" x2="949.3" y2="-791.05" gradientTransform="translate(-727.11 1064.08) rotate(-11.99)" xlink:href="#linear-gradient-12"/><linearGradient id="linear-gradient-37" x1="942.77" y1="-817.24" x2="978.99" y2="-816.82" gradientTransform="translate(-727.11 1064.08) rotate(-11.99)" xlink:href="#linear-gradient-12"/><linearGradient id="linear-gradient-38" x1="995.23" y1="-825.94" x2="990.56" y2="-814.69" xlink:href="#linear-gradient-29"/><linearGradient id="linear-gradient-39" x1="982.29" y1="-864" x2="983.14" y2="-820.71" gradientTransform="translate(-727.11 1064.08) rotate(-11.99)" xlink:href="#linear-gradient-12"/><linearGradient id="linear-gradient-40" x1="128.83" y1="187.24" x2="19.9" y2="165.95" xlink:href="#linear-gradient-12"/><linearGradient id="linear-gradient-41" x1="979.7" y1="-846.9" x2="979.7" y2="-785.83" gradientTransform="translate(-727.11 1064.08) rotate(-11.99)" xlink:href="#linear-gradient-12"/><linearGradient id="linear-gradient-42" x1="976.56" y1="-763.09" x2="948.86" y2="-744.09" gradientTransform="translate(-727.11 1064.08) rotate(-11.99)" xlink:href="#linear-gradient"/></defs><g><path class="cls-39" d="m255.51,82.75l4.22-9.36c4.53,3.3,11.28,5.6,17.72,5.6,7.37,0,10.36-2.46,10.36-5.75,0-10.05-31.23-3.15-31.23-23.09,0-9.13,7.37-16.73,22.63-16.73,6.75,0,13.66,1.61,18.64,4.76l-3.84,9.44c-4.99-2.84-10.13-4.22-14.88-4.22-7.37,0-10.2,2.76-10.2,6.14,0,9.9,31.23,3.07,31.23,22.79,0,8.98-7.44,16.65-22.79,16.65-8.52,0-17.11-2.53-21.87-6.21Z"/><path class="cls-39" d="m342.04,76.53h-24.93l-4.76,11.51h-12.74l23.94-53.7h12.28l24.01,53.7h-13.04l-4.76-11.51Zm-3.91-9.44l-8.52-20.56-8.52,20.56h17.03Z"/><path class="cls-39" d="m398.07,88.04l-10.36-14.96h-11.43v14.96h-12.43v-53.7h23.25c14.35,0,23.32,7.44,23.32,19.49,0,8.06-4.07,13.96-11.05,16.96l12.05,17.26h-13.35Zm-11.66-43.58h-10.13v18.72h10.13c7.6,0,11.43-3.53,11.43-9.36s-3.84-9.36-11.43-9.36Z"/><path class="cls-39" d="m414.79,61.19c0-16.19,12.43-27.77,29.15-27.77,9.28,0,17.03,3.38,22.1,9.51l-7.98,7.37c-3.61-4.14-8.13-6.29-13.5-6.29-10.05,0-17.19,7.06-17.19,17.19s7.13,17.19,17.19,17.19c5.37,0,9.9-2.15,13.5-6.37l7.98,7.37c-5.06,6.21-12.81,9.59-22.17,9.59-16.65,0-29.08-11.58-29.08-27.77Z"/><path class="cls-39" d="m467.8,61.19c0-15.96,12.43-27.77,29.38-27.77s29.38,11.74,29.38,27.77-12.51,27.77-29.38,27.77-29.38-11.82-29.38-27.77Zm46.19,0c0-10.2-7.21-17.19-16.8-17.19s-16.8,6.98-16.8,17.19,7.21,17.19,16.8,17.19,16.8-6.98,16.8-17.19Z"/><path class="cls-39" d="m583.08,88.04l-.08-32.22-15.8,26.55h-5.6l-15.73-25.85v31.53h-11.66v-53.7h10.28l20.1,33.37,19.79-33.37h10.2l.15,53.7h-11.66Z"/><path class="cls-39" d="m647.35,78.07v9.97h-41.58v-53.7h40.59v9.97h-28.23v11.66h24.93v9.67h-24.93v12.43h29.23Z"/><path class="cls-39" d="m690.19,88.04l-10.36-14.96h-11.43v14.96h-12.43v-53.7h23.25c14.35,0,23.32,7.44,23.32,19.49,0,8.06-4.07,13.96-11.05,16.96l12.05,17.26h-13.35Zm-11.66-43.58h-10.13v18.72h10.13c7.6,0,11.43-3.53,11.43-9.36s-3.84-9.36-11.43-9.36Z"/><path class="cls-39" d="m752.3,78.07v9.97h-41.58v-53.7h40.59v9.97h-28.23v11.66h24.93v9.67h-24.93v12.43h29.23Z"/></g><g><path class="cls-37" d="m260.08,99.73h24.4c17.57,0,29.61,10.59,29.61,26.85s-12.04,26.85-29.61,26.85h-24.4v-53.71Zm23.78,43.5c10.66,0,17.65-6.37,17.65-16.65s-6.98-16.65-17.65-16.65h-11.35v33.3h11.35Z"/><path class="cls-37" d="m355.55,134.41v19.03h-12.43v-19.18l-20.79-34.52h13.2l14.35,23.86,14.35-23.86h12.2l-20.87,34.68Z"/><path class="cls-37" d="m441.13,99.73v53.71h-10.2l-26.78-32.61v32.61h-12.28v-53.71h10.28l26.7,32.61v-32.61h12.28Z"/><path class="cls-37" d="m499.31,141.92h-24.93l-4.76,11.51h-12.74l23.94-53.71h12.28l24.01,53.71h-13.04l-4.76-11.51Zm-3.91-9.44l-8.52-20.56-8.52,20.56h17.03Z"/><path class="cls-37" d="m581.66,153.43l-.08-32.22-15.8,26.55h-5.6l-15.73-25.86v31.53h-11.66v-53.71h10.28l20.1,33.37,19.79-33.37h10.2l.15,53.71h-11.66Z"/><path class="cls-37" d="m616,99.73h12.43v53.71h-12.43v-53.71Z"/><path class="cls-37" d="m647.69,126.58c0-16.19,12.43-27.77,29.15-27.77,9.28,0,17.03,3.38,22.1,9.51l-7.98,7.37c-3.61-4.14-8.13-6.29-13.5-6.29-10.05,0-17.19,7.06-17.19,17.19s7.14,17.19,17.19,17.19c5.37,0,9.9-2.15,13.5-6.37l7.98,7.37c-5.06,6.21-12.81,9.59-22.17,9.59-16.65,0-29.08-11.58-29.08-27.77Z"/><path class="cls-37" d="m713.42,148.14l4.22-9.36c4.53,3.3,11.28,5.6,17.72,5.6,7.37,0,10.36-2.46,10.36-5.75,0-10.05-31.23-3.15-31.23-23.09,0-9.13,7.37-16.73,22.63-16.73,6.75,0,13.66,1.61,18.64,4.76l-3.84,9.44c-4.99-2.84-10.13-4.22-14.88-4.22-7.37,0-10.2,2.76-10.2,6.14,0,9.9,31.23,3.07,31.23,22.79,0,8.98-7.44,16.65-22.79,16.65-8.52,0-17.11-2.53-21.87-6.21Z"/></g><g><g><path class="cls-45" d="m201.16,100.78c0,3.19-.15,6.38-.45,9.48,0,.11-.02.19-.02.3-.11.94-.19,1.88-.32,2.82v.06c0,.06-.02.15-.02.21-.02.02-.02.04-.02.06-.06.49-.15,1.01-.21,1.52-.02.09-.02.19-.04.3-.95,6.38-2.51,12.56-4.62,18.46-.02.06-.04.15-.09.21-.3.9-.62,1.73-.97,2.61-.02.06-.04.11-.06.17t-.02.04v.02c-.02.06-.04.11-.06.17-.32.79-.67,1.63-.99,2.42-.04.09-.06.15-.11.24-1.44,3.34-3.05,6.59-4.84,9.73-.11.19-.21.39-.32.56-.39.68-.77,1.35-1.18,2.01,0,0,0,.02-.02.02-.11.19-.24.39-.34.58l-.02.02c-.41.66-.8,1.28-1.22,1.93-.15.24-.3.47-.47.68-1.12,1.73-2.3,3.42-3.55,5.07-.19.28-.41.53-.62.79-.32.45-.69.9-1.03,1.35-.04.04-.09.09-.13.15-.17.21-.34.43-.52.64-.04.04-.09.11-.13.15-.24.3-.47.58-.71.88-.21.26-.45.53-.67.79-2,2.33-4.1,4.56-6.3,6.7-.3.3-.6.6-.92.9-.26.24-.52.49-.77.73-.04.04-.11.11-.17.15-.28.26-.56.51-.84.75-.04.06-.11.11-.15.15-.15.13-.28.26-.43.39-.34.3-.69.6-1.03.9-4.38,3.81-9.09,7.23-14.1,10.23-.49.28-.99.58-1.48.86-.41.26-.84.49-1.27.73-.02.02-.06.02-.09.04-.52.28-1.01.56-1.53.81-.02.02-.04.04-.06.04-.73.39-1.46.77-2.19,1.13-.58.28-1.14.58-1.72.86h-.02c-6.34,3.02-13.07,5.39-20.09,7.04-1.14.28-2.26.51-3.4.75h-.06c-1.16.24-2.34.45-3.52.62-.02.02-.04.02-.06,0-.62.11-1.27.21-1.91.3h-.06c-.95.15-1.89.26-2.86.36h-.15c-.62.09-1.27.15-1.91.21-.04,0-.09.02-.13,0-.6.06-1.2.11-1.81.13-.06.02-.13.04-.19.02-1.83.15-3.67.21-5.52.24-.47.02-.92.02-1.4.02-.24,0-.47,0-.69-.02l.19-.36.49-.98,21.55-42.23,5.78-11.34v-.02l4.49-8.77s-.47-14.89-1.16-35.77c-.06-2.48-.15-5.01-.24-7.64v-.02c-.15-4.24-.28-8.66-.45-13.22-.17-5.37-.34-10.89-.54-16.47-.11-3.94-.26-7.92-.39-11.9-.54-16.39-1.1-32.71-1.59-46.45.06,0,.13.02.17.04.8.24,1.59.47,2.39.71.11.04.19.06.3.11,5.31,1.67,10.42,3.79,15.3,6.29.28.13.56.28.82.43.39.19.77.41,1.16.6.15.09.28.15.43.24.28.15.56.3.84.47.37.19.73.41,1.1.62,2.11,1.2,4.15,2.48,6.15,3.83.67.45,1.35.94,2.02,1.41.24.17.47.32.69.49.04.02.09.06.11.09.34.24.69.49,1.01.73.3.24.58.45.86.66.04.02.06.04.11.09.32.24.62.47.95.73,3.83,3.02,7.46,6.31,10.79,9.86.49.49.95.98,1.4,1.48.09.11.19.19.28.3.15.15.3.32.43.49.32.34.62.68.92,1.03.15.17.28.32.43.49.06.09.15.17.21.26.43.49.84,1.01,1.27,1.52,4.02,4.92,7.59,10.23,10.59,15.85v.02c.24.43.47.88.71,1.33.21.43.43.83.62,1.26.04.06.09.13.13.21.19.39.39.77.56,1.16.04.09.09.17.13.26.26.56.54,1.11.75,1.69.21.43.41.88.6,1.31,2.82,6.42,4.96,13.16,6.34,20.17.06.3.11.58.17.88.19.98.39,1.97.52,2.95.04.28.09.53.13.81v.02c.13.81.26,1.65.34,2.46.04.26.09.51.11.77.43,3.81.67,7.68.67,11.6Z"/><g><path class="cls-4" d="m190.09,55.23c.21.43.43.83.62,1.26l-37.29,44.29-10.92,12.94-2.39,2.85.67-4.62,1.93-2.31,7.41-8.86,39.24-46.88c.24.43.47.88.71,1.33Z"/><path class="cls-9" d="m159.34,19.82c.24.17.47.32.69.49l-16.23,67.11-.95,3.94.37-10.1,1.14-5.07,12.96-57.79c.67.45,1.35.94,2.02,1.41Z"/><path class="cls-8" d="m175.24,33.94c.09.11.19.19.28.3l-32.26,64.33-.82,1.63-.86-1.93,1.87-3.83v-.02l30.39-61.96c.49.49.95.98,1.4,1.48Z"/><path class="cls-10" d="m199.4,82.17c.19.98.39,1.97.52,2.95l-22.78,15.66h-.02l-34.23,23.53-.9.62-4.26,2.93-.41-2.55,4.81-3.42,29.7-21.12,27.4-19.49c.06.3.11.58.17.88Z"/><path class="cls-6" d="m141.44,136l59.27-25.74c0,.11-.02.19-.02.3-.11.94-.19,1.88-.32,2.82v.06l-58.71,24.86-.34.15-2.99,1.26.32-2.52,2.77-1.2h.02Z"/><path class="cls-11" d="m195.36,134.22c-.3.9-.62,1.73-.97,2.61-.02.06-.04.11-.06.17t-.02.04v.02l-53.55,12.54-1.14.28-.02-2.1,1.27-.3,54.5-13.26Z"/></g><g><path class="cls-1" d="m187.99,150.18c-.39.68-.77,1.35-1.18,2.01,0,0,0,.02-.02.02-.11.19-.24.39-.34.58l-.02.02-45.93,4.32h-.11l-1.93.19.26-1.88,1.78-.19,47.49-5.07Z"/><path class="cls-7" d="m180.55,161.28c-.32.45-.69.9-1.03,1.35-.04.04-.09.09-.13.15-.17.21-.34.43-.52.64l-41.48.11h-1.91l1.07-2.16h2.54l41.46-.09Z"/><path class="cls-2" d="m170.15,172.84c-.26.24-.52.49-.77.73-.04.04-.11.11-.17.15-.28.26-.56.51-.84.75l-37.52-2.52h-.21l-1.44-.11,1.38-1.54,1.29.09h.19l38.1,2.46Z"/><path class="cls-5" d="m151.18,186.98c-.41.26-.84.49-1.27.73-.02.02-.06.02-.09.04-.52.28-1.01.56-1.53.81-.02.02-.04.04-.06.04l-29.18-1.93-.21-.02-2.26-.15,1.07-1.86,2.64.19,30.88,2.14Z"/><path class="cls-3" d="m120.74,198.38c-1.16.24-2.34.45-3.52.62-.02.02-.04.02-.06,0-.62.11-1.27.21-1.91.3h-.06c-.95.15-1.89.26-2.86.36h-.15l-1.1-.06s-.09.02-.15,0l-2.13-.11-.21-.02-1.31-.06-.3-1.9,3.03.19,10.75.68Z"/></g><path class="cls-46" d="m140.26,159.87l-1.18,1.48-.02.02-1.72,2.16-5.48,6.85-1.22,1.54v.02l-7.41,9.24v.06l-2.92,3.59-1.44,1.8-.02.02-8.83,11.04-1.42,1.78-.21.26-.24.3c-1.83.15-3.67.21-5.52.24-.47.02-.92.02-1.4.02-.24,0-.47,0-.69-.02-2.06,0-4.1-.09-6.12-.21-.9-.06-1.83-.13-2.73-.21-1.55-.15-3.12-.32-4.64-.56-1.16-.17-2.32-.34-3.48-.56-.56-.09-1.12-.19-1.68-.3l7.41-9.73,9.41-12.37,2.51-3.29,21.34-28.05,3.27-4.3,2.73,4.64v.02l6.23,10.57,5.48,3.96Z"/><path class="cls-45" d="m134.35,54.95l-.75,1.73-2.94,6.74-3.8,8.75-5.39,12.37L103.53,1.32c.19-.02.37,0,.56.02.71,0,1.44.02,2.15.06h.17c.13.02.26.02.39.02.77.04,1.53.09,2.3.17,4.58.34,9.05,1.01,13.43,1.95h.02c.19.04.37.09.56.13h.02c.64.15,1.27.3,1.91.45.04,0,.06.02.11.02.19.04.39.11.58.15.64.15,1.27.32,1.89.49.37.09.71.19,1.05.3.06,0,.13.02.17.04l5.5,49.83Z"/><path class="cls-45" d="m146.83,12.23l-3.14,60.08-.09,1.67-.39,7.3-11.58,11.85v.02l-3.27,3.34-.92-14.8-.6-9.5-1.81-28.73-2.49-39.9c.19.04.37.09.56.13h.02c.64.15,1.27.3,1.91.45.04,0,.06.02.11.02.19.04.39.11.58.15.64.15,1.27.32,1.89.49.37.09.71.19,1.05.3.06,0,.13.02.17.04.8.24,1.59.47,2.39.71.11.04.19.06.3.11,5.31,1.67,10.42,3.79,15.3,6.29Z"/><path class="cls-22" d="m147.65,12.66c.39.19.77.41,1.16.6l-2.77,37.74,1.61-38.34Z"/><path class="cls-20" d="m160.14,20.4c.34.24.69.49,1.01.73l-15.67,60.23,14.66-60.95Z"/><path class="cls-24" d="m177.52,36.51l-33.25,61.25,31.68-63.03c.32.34.62.68.92,1.03.15.17.28.32.43.49.06.09.15.17.21.26Z"/><path class="cls-17" d="m192.29,59.81l-37.39,40.97-11.45,12.56,10.51-12.56,36.9-44.07c.19.39.39.77.56,1.16.04.09.09.17.13.26.26.56.54,1.11.75,1.69Z"/><path class="cls-12" d="m200.39,88.42l-18.91,12.37-38.55,25.2-.04-1.67v-.02l34.23-23.51h.02l22.78-15.66c.04.28.09.53.13.81v.02c.13.81.26,1.65.34,2.46Z"/><path class="cls-25" d="m200.37,113.38v.06c0,.06-.02.15-.02.21-.02.02-.02.04-.02.06-.06.49-.15,1.01-.21,1.52l-58.41,25.03-.04-1.97v-.15l58.71-24.77Z"/><path class="cls-21" d="m194.24,137.24c-.32.79-.67,1.63-.99,2.42-.04.09-.06.15-.11.24l-51.99,11.85-.04-1.9,53.12-12.6Z"/><path class="cls-13" d="m186.44,152.79l-.02.02c-.41.66-.8,1.28-1.22,1.93-.15.24-.3.47-.47.68l-44.21,2.52-.02-.81v-.04l45.95-4.3Z"/><path class="cls-19" d="m137.87,163.79l40.87-.21c-.24.3-.47.58-.71.88-.21.26-.45.53-.67.79l-40.72-.09,1.22-1.37Z"/><path class="cls-18" d="m168.22,174.61c-.15.13-.28.26-.43.39-.34.3-.69.6-1.03.9l-36.56-2.61.54-1.09,37.48,2.42Z"/><path class="cls-23" d="m148.3,188.56s-.04.04-.06.04c-.73.39-1.46.77-2.19,1.13-.58.28-1.14.58-1.72.86h-.02l-26.28-2.29,1.03-1.63.04-.06,29.21,1.95Z"/><path class="cls-14" d="m112.17,199.66c-.62.09-1.27.15-1.91.21-.04,0-.09.02-.13,0-.6.06-1.2.11-1.81.13l.26-.28.21-.24.02-.02,2.11.13c.06.02.11,0,.15,0l1.1.06Z"/><path class="cls-15" d="m126.74,58.23l-.9-13.54-2.71-41.01c.64.15,1.27.3,1.91.45l1.29,41.33.41,12.77Z"/><path class="cls-16" d="m120.77,79.09l-13.56-63.28-3.12-14.46c.71,0,1.44.02,2.15.06h.17l3.42,18.46,10.94,59.22Z"/><polygon class="cls-40" points="123.22 181.71 121.45 84.53 106.54 14.8 144.5 73.54 140.26 159.88 123.22 181.71"/><polygon class="cls-27" points="121.45 84.53 106.54 14.8 144.5 73.54 121.45 84.53"/></g><path class="cls-43" d="m89.18,51.41l10.72.83,1.6.23s-3.96,2.14-4.27,2.21c-.31.07-5.69-.26-5.69-.26l-2.36-3Z"/><polygon class="cls-44" points="76.04 59.56 97.23 54.68 88.21 50.72 84.81 51.63 76.04 59.56"/><polygon class="cls-33" points="81.1 46.68 88.72 50.71 75.83 59.73 73.12 59.32 73.99 54.7 75.53 50.68 81.1 46.68"/><path class="cls-30" d="m77.31,197.44c-8.38-2.05-16.35-5.16-23.75-9.16-.04-.02-.06-.04-.11-.06-.41-.24-.82-.45-1.22-.68l17.77,1.22,7.31,8.69Z"/><path class="cls-41" d="m91.67,199.83c-1.55-.15-3.12-.32-4.64-.56-1.16-.17-2.32-.34-3.48-.56-.56-.09-1.12-.19-1.68-.3-.19-.02-.41-.06-.62-.11-1.33-.28-2.62-.56-3.91-.88h-.02c-8.38-2.05-16.35-5.16-23.75-9.16-.04-.02-.06-.04-.11-.06-.41-.24-.82-.45-1.22-.68,0-.02-.02-.02-.02-.02-.64-.34-1.27-.71-1.89-1.07-2.43-1.43-4.77-2.95-7.07-4.58-.19-.13-.39-.28-.6-.43-.19-.15-.41-.3-.6-.45l-.8-.62,3.63-15.92-7.11-26.14v-.09l-.02-.04h.06l.15.02h.04l22.5,1.48,12.55,5.16,7.99,5.35.02.02,1.63,7.66,6.58,30.83,2.34,10.93.04.21Z"/><polygon class="cls-38" points="69.05 124.52 37.77 138.29 81.06 150.19 69.05 124.52"/><polygon class="cls-29" points="48.74 93.66 69.05 124.52 37.77 138.29 43.65 103.53 48.74 93.66"/><polygon class="cls-28" points="32.9 83.78 29.39 87.77 37.77 138.29 56.51 68.81 48.81 71.52 32.9 83.78"/><polygon class="cls-32" points="48.28 44.51 57.14 68.68 29.39 87.77 48.28 44.51"/><path class="cls-42" d="m70.24,61.13l3.31-1.35s2.11-6.96,8.35-12.99c-4.34-3.48-9.35-5.51-9.35-5.51l-4.17,8.04,1.87,11.81Z"/><path class="cls-31" d="m48.28,44.51s13.64-5.92,25.04-3.56c-1.14,2.84-1.97,20.81-1.97,20.81,0,0-13.01,6.44-14.22,6.91-2.36-4.93-8.86-24.16-8.86-24.16Z"/><path class="cls-26" d="m91.67,199.83c-1.55-.15-3.12-.32-4.64-.56-1.16-.17-2.32-.34-3.48-.56-.56-.09-1.12-.19-1.68-.3-.19-.02-.41-.06-.62-.11-1.33-.28-2.62-.56-3.91-.88h-.02c-8.38-2.05-16.35-5.16-23.75-9.16-.04-.02-.06-.04-.11-.06-.41-.24-.82-.45-1.22-.68,0-.02-.02-.02-.02-.02-.64-.34-1.27-.71-1.89-1.07-2.43-1.43-4.77-2.95-7.07-4.58-.19-.13-.39-.28-.6-.43-.19-.15-.41-.3-.6-.45l-.8-.62-.26-.19,3.89-15.73,37.82-6.59,6.58,30.83,2.34,10.93.04.21Z"/><polygon class="cls-34" points="71.36 61.76 49.19 47.11 48.81 47.27 56.45 69.25 71.36 61.76"/><polygon class="cls-36" points="69.05 124.52 39.16 137.78 68.37 123.85 69.05 124.52"/><ellipse class="cls-35" cx="100.79" cy="100.8" rx="99.69" ry="99.7"/></g></svg>